<svg xmlns="http://www.w3.org/2000/svg" viewBox="0 0 512 512" role="img" aria-label="ISBN2Notion">
  <rect width="512" height="512" fill="#1f7a5f"/>
  <rect x="116" y="74" width="280" height="364" rx="34" fill="#f8faf7"/>
  <rect x="144" y="74" width="42" height="364" rx="18" fill="#20231f"/>
  <rect x="214" y="128" width="108" height="18" rx="9" fill="#20231f"/>
  <rect x="214" y="170" width="152" height="18" rx="9" fill="#20231f"/>
  <rect x="214" y="212" width="124" height="18" rx="9" fill="#20231f"/>
  <rect x="214" y="296" width="12" height="76" rx="6" fill="#20231f"/>
  <rect x="238" y="296" width="8" height="76" rx="4" fill="#20231f"/>
  <rect x="260" y="296" width="20" height="76" rx="8" fill="#20231f"/>
  <rect x="294" y="296" width="10" height="76" rx="5" fill="#20231f"/>
  <rect x="318" y="296" width="16" height="76" rx="7" fill="#20231f"/>
  <rect x="348" y="296" width="8" height="76" rx="4" fill="#20231f"/>
  <path d="M204 402h164" stroke="#e8a23a" stroke-width="18" stroke-linecap="round"/>
</svg>
